<svg width="513" height="513" viewBox="0 0 513 513" fill="none" xmlns="http://www.w3.org/2000/svg">
<rect width="513" height="513" fill="#F5F5F5"/>
<path d="M204 192L54.5 357.5L46.5 298.5L30 265.5L204 183V192Z" fill="#8986AE"/>
<path d="M196 200.685L67.9799 342L61.1293 291.622L47 263.444L196 193V200.685Z" fill="#5E5C72"/>
<path d="M310 192L459.5 357.5L467.5 298.5L484 265.5L310 183V192Z" fill="#8986AE"/>
<path d="M318 200.685L446.02 342L452.871 291.622L467 263.444L318 193V200.685Z" fill="#5E5C72"/>
<path d="M321.894 260.784C408.605 251.322 473.543 262.284 482.543 264.784C491.543 267.284 499.449 281.261 496.043 284.666C492.623 288.072 481.099 299.186 475.543 308.848C467.531 322.783 461.886 384.16 441.395 401.217C420.262 418.773 340.548 412.232 325.286 404.637C291.129 387.608 286.939 332.604 280.897 308.521C277.496 294.903 270.312 296.008 256.5 295C242.847 295.981 236.336 295.08 232.955 308.621C226.913 332.703 222.723 387.708 188.566 404.737C173.304 412.332 93.5893 418.873 72.4565 401.317C51.965 384.26 46.3205 322.883 38.3081 308.948C32.7525 299.286 21.2283 288.172 17.8081 284.766C14.4023 281.36 22.3081 267.383 31.3081 264.883C40.3094 262.383 105.247 251.421 191.956 260.883C209.256 262.764 239.524 265.942 256.837 267.695C273.427 265.69 304.712 262.652 321.894 260.784Z" fill="#8986AE"/>
<g filter="url(#filter0_d_0_1)">
<path d="M319.739 271.407C402.14 262.887 463.851 272.757 472.403 275.008C480.956 277.259 482.236 283.934 479 287C475.75 290.066 471.031 305.982 465.751 314.682C458.137 327.228 452.773 382.489 433.3 397.847C413.218 413.653 337.465 407.764 322.962 400.926C290.503 385.594 286.521 336.07 280.78 314.387C277.548 302.126 270.721 303.121 257.595 302.213C244.621 303.097 238.434 302.285 235.22 314.477C229.479 336.16 225.497 385.683 193.038 401.016C178.535 407.854 102.782 413.743 82.7 397.936C63.2271 382.579 57.8631 327.318 50.2489 314.771C44.9695 306.072 39.7502 290.067 36.5 287C33.2635 283.934 35.0442 277.349 43.5969 275.098C52.1508 272.847 113.86 262.977 196.26 271.496C212.7 273.19 241.464 276.051 257.916 277.629C273.681 275.824 303.411 273.089 319.739 271.407Z" fill="url(#paint0_radial_0_1)"/>
<path d="M319.739 271.407C402.14 262.887 463.851 272.757 472.403 275.008C480.956 277.259 482.236 283.934 479 287C475.75 290.066 471.031 305.982 465.751 314.682C458.137 327.228 452.773 382.489 433.3 397.847C413.218 413.653 337.465 407.764 322.962 400.926C290.503 385.594 286.521 336.07 280.78 314.387C277.548 302.126 270.721 303.121 257.595 302.213C244.621 303.097 238.434 302.285 235.22 314.477C229.479 336.16 225.497 385.683 193.038 401.016C178.535 407.854 102.782 413.743 82.7 397.936C63.2271 382.579 57.8631 327.318 50.2489 314.771C44.9695 306.072 39.7502 290.067 36.5 287C33.2635 283.934 35.0442 277.349 43.5969 275.098C52.1508 272.847 113.86 262.977 196.26 271.496C212.7 273.19 241.464 276.051 257.916 277.629C273.681 275.824 303.411 273.089 319.739 271.407Z" fill="url(#paint1_radial_0_1)" fill-opacity="0.2"/>
</g>
<defs>
<filter id="filter0_d_0_1" x="10.9886" y="248" width="493.641" height="188" filterUnits="userSpaceOnUse" color-interpolation-filters="sRGB">
<feFlood flood-opacity="0" result="BackgroundImageFix"/>
<feColorMatrix in="SourceAlpha" type="matrix" values="0 0 0 0 0 0 0 0 0 0 0 0 0 0 0 0 0 0 127 0" result="hardAlpha"/>
<feMorphology radius="20" operator="dilate" in="SourceAlpha" result="effect1_dropShadow_0_1"/>
<feOffset dy="4"/>
<feGaussianBlur stdDeviation="2"/>
<feComposite in2="hardAlpha" operator="out"/>
<feColorMatrix type="matrix" values="0 0 0 0 0 0 0 0 0 0 0 0 0 0 0 0 0 0 0.1 0"/>
<feBlend mode="normal" in2="BackgroundImageFix" result="effect1_dropShadow_0_1"/>
<feBlend mode="normal" in="SourceGraphic" in2="effect1_dropShadow_0_1" result="shape"/>
</filter>
<radialGradient id="paint0_radial_0_1" cx="0" cy="0" r="1" gradientUnits="userSpaceOnUse" gradientTransform="translate(258 338) rotate(-45) scale(156.271)">
<stop stop-color="#E8A389"/>
<stop offset="1" stop-color="#E77348"/>
</radialGradient>
<radialGradient id="paint1_radial_0_1" cx="0" cy="0" r="1" gradientUnits="userSpaceOnUse" gradientTransform="translate(72.5 423) rotate(-57.7461) scale(293.251 90.0333)">
<stop stop-color="#8C643E"/>
<stop offset="1" stop-color="#AD4B00"/>
</radialGradient>
</defs>
</svg>
